<svg width="117" height="52" viewBox="0 0 117 52" fill="none" xmlns="http://www.w3.org/2000/svg">
<path d="M117 41.9395H0V43.1367H117V41.9395Z" fill="#C10D19"/>
<path d="M11.8994 0.719893C11.8994 0.325113 12.2169 0 12.6082 0H24.0884C24.4771 0 24.8353 0.319952 24.8861 0.712152L28.1506 26.7934C28.1989 27.1856 28.2878 27.1882 28.3462 26.796L32.2991 0.709572C32.3576 0.319952 32.7259 0 33.1146 0H44.2824C44.6711 0 44.9912 0.322533 44.9912 0.719893V37.6228C44.9912 38.0176 44.6736 38.3401 44.2824 38.3401H38.0075C37.6188 38.3401 37.2987 38.0176 37.2987 37.6228V6.34744C37.2987 5.95266 37.2454 5.9475 37.1793 6.33712L31.9028 37.6331C31.8368 38.0227 31.4659 38.3401 31.0746 38.3401H24.7489C24.3603 38.3401 23.9919 38.0201 23.9309 37.6305L19.0787 6.33712C19.0177 5.9475 18.9694 5.95008 18.9694 6.34486V37.6202C18.9694 38.015 18.6519 38.3375 18.2607 38.3375H12.6056C12.2169 38.3375 11.8969 38.015 11.8969 37.6202V0.719893H11.8994Z" fill="#525556"/>
<path d="M59.1643 22.7476C59.553 22.7476 59.8477 22.425 59.8147 22.0303L58.5826 6.57967C58.5521 6.18489 58.4835 6.18489 58.4352 6.57709L56.4664 22.0354C56.4156 22.4276 56.695 22.7476 57.0837 22.7476H59.1643ZM54.2816 37.6305C54.2232 38.0227 53.8574 38.3401 53.4687 38.3401H47.4529C47.0617 38.3401 46.7975 38.0227 46.8635 37.6331L53.0216 0.709572C53.0876 0.319952 53.4585 0 53.8472 0H64.5221C64.9108 0 65.2716 0.319952 65.3224 0.712152L70.0349 37.6279C70.0857 38.0201 69.8088 38.3401 69.4176 38.3401H62.0554C61.6667 38.3401 61.3136 38.0176 61.2729 37.6254L60.4396 29.642C60.399 29.2498 60.0459 28.9273 59.6572 28.9273H56.2809C55.8922 28.9273 55.5264 29.2473 55.468 29.6395L54.2816 37.6305Z" fill="#525556"/>
<path d="M71.267 0.709572C71.2086 0.319952 71.4779 0 71.8665 0H79.8994C80.2881 0 80.6336 0.322533 80.6666 0.717313L83.0089 28.8422C83.042 29.2344 83.108 29.2369 83.1563 28.8447L86.6062 0.712152C86.6545 0.319952 87.0127 0 87.4014 0H94.0903C94.4816 0 94.7458 0.319952 94.6823 0.709572L88.6487 37.6305C88.5852 38.0201 88.2143 38.3401 87.8256 38.3401H77.6943C77.3056 38.3401 76.9373 38.0201 76.8788 37.6305L71.267 0.709572Z" fill="#525556"/>
<path d="M97.0296 38.3401C96.6409 38.3401 96.3208 38.0176 96.3208 37.6228V0.719893C96.3208 0.325113 96.6384 0 97.0296 0H104.392C104.78 0 105.101 0.322533 105.101 0.719893V37.6228C105.101 38.0176 104.783 38.3401 104.392 38.3401H97.0296Z" fill="#525556"/>
<path d="M13.0274 48.767C12.9334 48.576 12.7174 48.1967 12.1814 48.1967C11.4574 48.1967 11.1983 48.8109 11.1983 49.2727C11.1983 49.7991 11.5285 50.3564 12.1712 50.3564C12.593 50.3564 12.88 50.1087 13.0198 49.7965H13.6472C13.4186 50.4725 12.8368 50.8802 12.1712 50.8802C11.1856 50.8802 10.6343 50.0623 10.6343 49.2753C10.6343 48.4522 11.2287 47.6755 12.1763 47.6755C13.0274 47.6755 13.5355 48.318 13.6472 48.7696H13.0274V48.767Z" fill="#525556"/>
<path d="M18.5681 48.1967C17.9355 48.1967 17.5138 48.7309 17.5138 49.2727C17.5138 49.8223 17.9406 50.3564 18.5681 50.3564C19.1753 50.3564 19.6249 49.8455 19.6249 49.2676C19.6224 48.7309 19.2007 48.1967 18.5681 48.1967ZM18.5681 50.8776C17.5621 50.8776 16.9498 50.0262 16.9498 49.2572C16.9498 48.4264 17.6357 47.6755 18.5681 47.6755C19.4776 47.6755 20.1864 48.4006 20.1864 49.2701C20.1864 50.0107 19.5843 50.8776 18.5681 50.8776Z" fill="#525556"/>
<path d="M27.6527 50.8002V49.1076C27.6527 48.8496 27.6197 48.1967 26.944 48.1967C26.225 48.1967 26.2352 48.8496 26.2301 49.105V50.8028H25.6687V49.1102C25.6737 48.8573 25.6636 48.687 25.5442 48.4832C25.4044 48.2638 25.1911 48.1967 24.9878 48.1967C24.246 48.1967 24.246 48.8779 24.246 49.105V50.8028H23.6846V47.7581H24.2028V48.0884H24.2155C24.3248 47.9619 24.5178 47.6755 25.0742 47.6755C25.4375 47.6755 25.8541 47.851 26.0065 48.1864C26.1031 48.0316 26.3241 47.6755 26.9973 47.6755C27.5003 47.6755 27.8585 47.8845 28.0516 48.2251C28.1608 48.4212 28.2193 48.6689 28.2193 48.9657V50.8002H27.6527Z" fill="#525556"/>
<path d="M34.2045 49.0869C34.1766 48.6406 33.7778 48.1967 33.2366 48.1967C32.6955 48.1967 32.2941 48.6431 32.2687 49.0869H34.2045ZM32.2687 49.5256C32.4085 50.1139 32.8759 50.3564 33.2519 50.3564C33.6685 50.3564 33.9708 50.1087 34.108 49.8455H34.6695C34.3824 50.6325 33.6965 50.8802 33.229 50.8802C32.3805 50.8802 31.7022 50.1371 31.7022 49.2753C31.7022 48.3619 32.3958 47.6755 33.2392 47.6755C34.0496 47.6755 34.7584 48.3464 34.766 49.2366C34.766 49.3346 34.7558 49.4895 34.7507 49.5282H32.2687V49.5256Z" fill="#525556"/>
<path d="M38.2539 50.8001V47.7554H38.7773V48.0289H38.7874C39.0262 47.6883 39.4098 47.678 39.5496 47.6729V48.2612C39.4632 48.2612 39.2777 48.2999 39.1431 48.3695C38.9653 48.4702 38.8128 48.6998 38.8128 49.1333V50.7976H38.2539V50.8001Z" fill="#525556"/>
<path d="M45.103 48.767C45.0115 48.576 44.7931 48.1967 44.2596 48.1967C43.533 48.1967 43.2739 48.8109 43.2739 49.2727C43.2739 49.7991 43.6041 50.3564 44.2469 50.3564C44.6686 50.3564 44.9556 50.1087 45.0954 49.7965H45.7229C45.4968 50.4725 44.9125 50.8802 44.2469 50.8802C43.2612 50.8802 42.7099 50.0623 42.7099 49.2753C42.7099 48.4522 43.3044 47.6755 44.2519 47.6755C45.103 47.6755 45.6111 48.318 45.7229 48.7696H45.103V48.767Z" fill="#525556"/>
<path d="M49.7444 50.8001H49.183V47.7554H49.7444V50.8001ZM49.7444 47.4045H49.183V46.7336H49.7444V47.4045Z" fill="#525556"/>
<path d="M54.8532 48.1967C54.2206 48.1967 53.7989 48.7309 53.7989 49.2727C53.7989 49.8223 54.2257 50.3564 54.8532 50.3564C55.4604 50.3564 55.9075 49.8455 55.9075 49.2676C55.9075 48.7309 55.4858 48.1967 54.8532 48.1967ZM54.8532 50.8776C53.8472 50.8776 53.235 50.0262 53.235 49.2572C53.235 48.4264 53.9209 47.6755 54.8532 47.6755C55.7627 47.6755 56.4715 48.4006 56.4715 49.2701C56.4715 50.0107 55.8719 50.8776 54.8532 50.8776Z" fill="#525556"/>
<path d="M66.4859 48.7306C66.4859 49.2028 66.1124 49.5821 65.6628 49.5821C65.2029 49.5821 64.8346 49.1925 64.8346 48.7306C64.8346 48.2791 65.1877 47.8792 65.6678 47.8792C66.1201 47.8792 66.4859 48.2636 66.4859 48.7306Z" fill="#525556"/>
<path d="M76.4546 48.1966C75.8576 48.1966 75.4155 48.7024 75.4155 49.2778C75.4155 49.8274 75.8474 50.3563 76.4495 50.3563C77.1862 50.3563 77.4987 49.6751 77.4987 49.2855C77.4987 48.4263 76.8001 48.1966 76.4546 48.1966ZM78.0601 50.3899C78.0601 51.3884 77.4606 51.9999 76.4368 51.9999C75.7382 51.9999 75.2072 51.6155 74.9608 51.0375H75.5883C75.6747 51.1588 75.9084 51.4761 76.4444 51.4761C77.0389 51.471 77.4987 51.1897 77.4987 50.4002H77.4885C77.3869 50.5421 77.0871 50.8775 76.4546 50.8775C75.4638 50.8775 74.8516 50.008 74.8516 49.2674C74.8516 48.5914 75.3774 47.6729 76.4647 47.6729C76.9068 47.6729 77.298 47.8767 77.4987 48.1063V47.7554H78.0601V50.3899Z" fill="#525556"/>
<path d="M82.262 46.7336H81.7006V50.8001H82.262V46.7336Z" fill="#525556"/>
<path d="M87.3734 48.1967C86.7408 48.1967 86.3166 48.7309 86.3166 49.2727C86.3166 49.8223 86.7434 50.3564 87.3734 50.3564C87.978 50.3564 88.4277 49.8455 88.4277 49.2676C88.4277 48.7309 88.006 48.1967 87.3734 48.1967ZM87.3734 50.8776C86.3674 50.8776 85.7551 50.0262 85.7551 49.2572C85.7551 48.4264 86.441 47.6755 87.3734 47.6755C88.2829 47.6755 88.9916 48.4006 88.9916 49.2701C88.9916 50.0107 88.3896 50.8776 87.3734 50.8776Z" fill="#525556"/>
<path d="M94.0547 50.3563C94.5958 50.3563 95.076 49.8841 95.076 49.2778C95.076 48.7075 94.6441 48.1967 94.0547 48.1967C93.4374 48.1967 93.0309 48.7308 93.0309 49.2675C93.0309 49.9538 93.5517 50.3563 94.0547 50.3563ZM92.4847 50.8001V46.7336H93.0462V48.1786H93.0563C93.3002 47.8328 93.6787 47.6729 94.0852 47.6729C94.8804 47.6729 95.6374 48.3386 95.6374 49.2778C95.6374 50.1577 94.9718 50.8775 94.0954 50.8775C93.8185 50.8775 93.3587 50.7795 93.0513 50.3615H93.0411V50.8001H92.4847Z" fill="#525556"/>
<path d="M100.563 48.1966C99.8698 48.1966 99.5345 48.8056 99.5345 49.2855C99.5345 49.8351 99.9613 50.3563 100.556 50.3563C101.145 50.3563 101.6 49.8661 101.6 49.2855C101.602 48.6353 101.143 48.1966 100.563 48.1966ZM101.592 50.8001V50.328H101.582C101.366 50.7021 100.97 50.8775 100.566 50.8775C99.5548 50.8775 98.9756 50.0906 98.9756 49.2881C98.9756 48.5476 99.4887 47.6729 100.566 47.6729C100.983 47.6729 101.366 47.8483 101.582 48.1837H101.592V47.7554H102.154V50.8001H101.592Z" fill="#525556"/>
<path d="M106.366 46.7336H105.802V50.8001H106.366V46.7336Z" fill="#525556"/>
</svg>
